<svg viewBox="0 0 512 512" xmlns="http://www.w3.org/2000/svg"><path d="m511.914062 256c0-141.386719-114.59375-256-255.957031-256-141.359375 0-255.957031 114.613281-255.957031 256s114.597656 256 255.957031 256c141.363281 0 255.957031-114.613281 255.957031-256zm0 0" fill="#407fff"/><path d="m416.289062 56.460938c35.308594 43.882812 56.453126 99.644531 56.453126 160.359374 0 141.382813-114.597657 256-255.960938 256-60.699219 0-116.453125-21.148437-160.332031-56.460937 46.917969 58.3125 118.847656 95.640625 199.507812 95.640625 141.363281 0 255.957031-114.613281 255.957031-256 0-80.675781-37.320312-152.617188-95.625-199.539062zm0 0" fill="#406aef"/><path d="m237.148438 273.117188c-2.957032 0-5.910157-.761719-8.558594-2.292969-5.296875-3.058594-8.558594-8.710938-8.558594-14.824219v-118.273438c0-9.742187 5.238281-18.816406 13.671875-23.6875 8.433594-4.871093 18.914063-4.871093 27.347656-.003906l86.109375 49.726563c8.632813 4.984375 13.996094 14.269531 13.996094 24.238281s-5.363281 19.253906-13.996094 24.238281l-101.457031 58.585938c-2.644531 1.53125-5.601563 2.292969-8.554687 2.292969zm17.113281-123.464844v76.695312l66.410156-38.34375zm0 0" fill="#e3faff"/><path d="m247.378906 401.613281c-4.730468 0-9.457031-1.21875-13.675781-3.652343-8.433594-4.871094-13.671875-13.945313-13.671875-23.6875v-118.273438c0-6.117188 3.261719-11.769531 8.558594-14.824219 5.292968-3.058593 11.820312-3.058593 17.113281 0l101.457031 58.585938c8.632813 4.980469 13.996094 14.269531 13.996094 24.238281s-5.363281 19.253906-13.996094 24.238281l-86.109375 49.722657c-4.214843 2.4375-8.945312 3.652343-13.671875 3.652343zm6.882813-115.960937v76.695312l66.410156-38.351562zm0 0" fill="#e3faff"/><path d="m271.40625 256.015625c-2.867188 4.984375-1.15625 11.347656 3.824219 14.222656l51.121093 29.523438c8.628907 4.980469 13.992188 14.269531 13.992188 24.234375 0 9.96875-5.363281 19.257812-13.992188 24.242187l-86.113281 49.722657c-1.058593.613281-2.148437 1.144531-3.265625 1.605468 3.324219 1.363282 6.863282 2.046875 10.40625 2.046875 4.726563 0 9.457032-1.21875 13.671875-3.652343l86.109375-49.726563c8.632813-4.980469 13.996094-14.269531 13.996094-24.238281s-5.363281-19.253906-13.996094-24.238282zm0 0" fill="#ccf4ff"/><path d="m271.40625 256.015625 75.753906-43.777344c8.621094-4.976562 13.980469-14.25 13.992188-24.207031-.007813-9.957031-5.367188-19.234375-13.992188-24.210938l-87.371094-50.453124c-7.039062-3.585938-15.304687-3.929688-22.578124-1.023438l89.140624 51.476562c8.628907 4.980469 13.992188 14.269532 13.992188 24.238282 0 9.964844-5.363281 19.253906-13.996094 24.238281l-51.0625 29.511719c-4.96875 2.871094-6.699218 9.207031-3.878906 14.207031zm0 0" fill="#ccf4ff"/><path d="m271.40625 256.015625-97.382812 56.824219c-2.710938 1.582031-5.675782 2.332031-8.601563 2.332031-5.890625 0-11.625-3.042969-14.804687-8.5-4.761719-8.171875-2-18.652344 6.167968-23.414063l97.382813-56.824218" fill="#e3faff"/><path d="m202.855469 256.410156v39.625l60.058593-35.003906-34.152343-19.722656zm0 0" fill="#ccf4ff"/><path d="m254.261719 285.652344-97.429688-56.40625c-8.183593-4.734375-10.976562-15.207032-6.242187-23.390625 4.730468-8.183594 15.207031-10.976563 23.386718-6.246094l97.429688 56.40625" fill="#e3faff"/></svg>